<svg xmlns="http://www.w3.org/2000/svg" version="1.1" xmlns:xlink="http://www.w3.org/1999/xlink" xmlns:svgjs="http://svgjs.dev/svgjs" width="1500" height="299" viewBox="0 0 1500 299"><g transform="matrix(1,0,0,1,-0.9090909090909918,-0.596488861395386)"><svg viewBox="0 0 396 79" data-background-color="#14293a" preserveAspectRatio="xMidYMid meet" height="299" width="1500" xmlns="http://www.w3.org/2000/svg" xmlns:xlink="http://www.w3.org/1999/xlink"><g id="tight-bounds" transform="matrix(1,0,0,1,0.2400000000000091,0.15760073595396307)"><svg viewBox="0 0 395.52 78.68479852809209" height="78.68479852809209" width="395.52"><g><svg viewBox="0 0 533.9718929734645 106.22843552356646" height="78.68479852809209" width="395.52"><g transform="matrix(1,0,0,1,138.45189297346454,18.990188370932316)"><svg viewBox="0 0 395.52 68.24805878170183" height="68.24805878170183" width="395.52"><g id="textblocktransform"><svg viewBox="0 0 395.52 68.24805878170183" height="68.24805878170183" width="395.52" id="textblock"><g><svg viewBox="0 0 395.52 68.24805878170183" height="68.24805878170183" width="395.52"><g transform="matrix(1,0,0,1,0,0)"><svg width="395.52" viewBox="2.05 -35.7 210.92999999999998 36.400000000000006" height="68.24805878170183" data-palette-color="#f2f0ef"><path d="M15.55 0.7L15.55 0.7Q11.6 0.7 8.55-0.7 5.5-2.1 3.78-4.83 2.05-7.55 2.05-11.45L2.05-11.45 2.05-12.7 7.4-12.7 7.4-11.45Q7.4-7.75 9.63-5.9 11.85-4.05 15.55-4.05L15.55-4.05Q19.3-4.05 21.2-5.63 23.1-7.2 23.1-9.7L23.1-9.7Q23.1-11.35 22.2-12.4 21.3-13.45 19.65-14.08 18-14.7 15.7-15.25L15.7-15.25 13.85-15.7Q10.5-16.5 8.03-17.68 5.55-18.85 4.2-20.8 2.85-22.75 2.85-25.8L2.85-25.8Q2.85-28.9 4.38-31.1 5.9-33.3 8.6-34.5 11.3-35.7 14.95-35.7L14.95-35.7Q18.6-35.7 21.48-34.45 24.35-33.2 26-30.75 27.65-28.3 27.65-24.6L27.65-24.6 27.65-22.8 22.3-22.8 22.3-24.6Q22.3-26.85 21.38-28.25 20.45-29.65 18.8-30.3 17.15-30.95 14.95-30.95L14.95-30.95Q11.75-30.95 9.98-29.63 8.2-28.3 8.2-25.95L8.2-25.95Q8.2-24.35 8.97-23.33 9.75-22.3 11.25-21.65 12.75-21 15-20.5L15-20.5 16.85-20.05Q20.25-19.3 22.85-18.13 25.45-16.95 26.95-14.95 28.45-12.95 28.45-9.8L28.45-9.8Q28.45-6.65 26.88-4.3 25.3-1.95 22.4-0.63 19.5 0.7 15.55 0.7ZM39.4 0L34.25 0 34.25-35 39.4-35 39.4-15.05 40.2-15.05 49.9-24.65 56.75-24.65 44.3-12.7 57.15 0 50.35 0 40.2-10.25 39.4-10.25 39.4 0ZM66.95 0L61.8 0 61.8-24.65 66.95-24.65 66.95 0ZM64.4-28L64.4-28Q62.9-28 61.87-28.98 60.85-29.95 60.85-31.5L60.85-31.5Q60.85-33.05 61.87-34.02 62.9-35 64.4-35L64.4-35Q65.95-35 66.95-34.02 67.95-33.05 67.95-31.5L67.95-31.5Q67.95-29.95 66.95-28.98 65.95-28 64.4-28ZM79.74 0L74.59 0 74.59-35 79.74-35 79.74 0ZM92.54 0L87.39 0 87.39-35 92.54-35 92.54 0ZM122.94 0L98.79 0 98.79-7 117.19-29.45 117.19-30.15 99.34-30.15 99.34-35 122.74-35 122.74-28 104.34-5.55 104.34-4.85 122.94-4.85 122.94 0ZM140.04 0.7L140.04 0.7Q136.34 0.7 133.46-0.83 130.59-2.35 128.94-5.2 127.29-8.05 127.29-11.95L127.29-11.95 127.29-12.7Q127.29-16.6 128.94-19.43 130.59-22.25 133.46-23.8 136.34-25.35 140.04-25.35L140.04-25.35Q143.74-25.35 146.64-23.8 149.54-22.25 151.19-19.43 152.84-16.6 152.84-12.7L152.84-12.7 152.84-11.95Q152.84-8.05 151.19-5.2 149.54-2.35 146.64-0.83 143.74 0.7 140.04 0.7ZM140.04-3.9L140.04-3.9Q143.44-3.9 145.56-6.08 147.69-8.25 147.69-12.1L147.69-12.1 147.69-12.55Q147.69-16.4 145.59-18.57 143.49-20.75 140.04-20.75L140.04-20.75Q136.69-20.75 134.56-18.57 132.44-16.4 132.44-12.55L132.44-12.55 132.44-12.1Q132.44-8.25 134.56-6.08 136.69-3.9 140.04-3.9ZM164.38 0L159.23 0 159.23-24.65 164.28-24.65 164.28-20.95 165.08-20.95Q165.78-22.45 167.58-23.75 169.38-25.05 172.93-25.05L172.93-25.05Q175.73-25.05 177.91-23.8 180.08-22.55 181.33-20.28 182.58-18 182.58-14.8L182.58-14.8 182.58 0 177.43 0 177.43-14.4Q177.43-17.6 175.83-19.13 174.23-20.65 171.43-20.65L171.43-20.65Q168.23-20.65 166.31-18.55 164.38-16.45 164.38-12.45L164.38-12.45 164.38 0ZM201.28 0.7L201.28 0.7Q197.53 0.7 194.73-0.88 191.93-2.45 190.36-5.33 188.78-8.2 188.78-12L188.78-12 188.78-12.6Q188.78-16.45 190.33-19.33 191.88-22.2 194.66-23.78 197.43-25.35 201.08-25.35L201.08-25.35Q204.63-25.35 207.31-23.78 209.98-22.2 211.48-19.4 212.98-16.6 212.98-12.85L212.98-12.85 212.98-10.9 194.03-10.9Q194.13-7.65 196.21-5.73 198.28-3.8 201.38-3.8L201.38-3.8Q204.28-3.8 205.75-5.1 207.23-6.4 208.03-8.1L208.03-8.1 212.28-5.9Q211.58-4.5 210.25-2.95 208.93-1.4 206.78-0.35 204.63 0.7 201.28 0.7ZM194.08-14.85L194.08-14.85 207.73-14.85Q207.53-17.65 205.73-19.23 203.93-20.8 201.03-20.8L201.03-20.8Q198.13-20.8 196.31-19.23 194.48-17.65 194.08-14.85Z" opacity="1" transform="matrix(1,0,0,1,0,0)" fill="#f2f0ef" class="wordmark-text-0" data-fill-palette-color="primary" id="text-0"></path></svg></g></svg></g></svg></g></svg></g><g><svg viewBox="0 0 106.22843552356646 106.22843552356646" height="106.22843552356646" width="106.22843552356646"><g><svg></svg></g><g id="icon-0"><svg viewBox="0 0 106.22843552356646 106.22843552356646" height="106.22843552356646" width="106.22843552356646"><g><path d="M0 53.114c0-29.334 23.78-53.114 53.114-53.114 29.334 0 53.114 23.78 53.114 53.114 0 29.334-23.78 53.114-53.114 53.114-29.334 0-53.114-23.78-53.114-53.114zM53.114 100.074c25.935 0 46.96-21.024 46.96-46.96 0-25.935-21.024-46.96-46.96-46.959-25.935 0-46.96 21.024-46.959 46.959 0 25.935 21.024 46.96 46.959 46.96z" data-fill-palette-color="accent" fill="#f2f0ef" stroke="transparent"></path></g><g transform="matrix(1,0,0,1,24.01489895850705,32.81893223171244)"><svg viewBox="0 0 58.19863760655236 40.590571060141585" height="40.590571060141585" width="58.19863760655236"><g><svg xmlns="http://www.w3.org/2000/svg" xmlns:xlink="http://www.w3.org/1999/xlink" version="1.1" x="0" y="0" viewBox="1.012 8.212 47.625 33.215999999999994" enable-background="new 0 0 50 50" xml:space="preserve" height="40.590571060141585" width="58.19863760655236" class="icon-dxe-0" data-fill-palette-color="accent" id="dxe-0"><g fill="#f2f0ef" data-fill-palette-color="accent"><polygon fill="#f2f0ef" points="19.937,10.508 17.653,8.212 1.012,24.792 17.647,41.428 19.94,39.135 5.603,24.794  " data-fill-palette-color="accent"></polygon><polygon fill="#f2f0ef" points="29.714,10.508 44.046,24.794 29.711,39.135 32.004,41.428 48.637,24.792 32.001,8.212  " data-fill-palette-color="accent"></polygon></g></svg></g></svg></g></svg></g></svg></g></svg></g><defs></defs></svg><rect width="395.52" height="78.68479852809209" fill="none" stroke="none" visibility="hidden"></rect></g></svg></g></svg>